<?xml version="1.0" standalone="no"?>
<!DOCTYPE svg PUBLIC "-//W3C//DTD SVG 20010904//EN"
 "http://www.w3.org/TR/2001/REC-SVG-20010904/DTD/svg10.dtd">
<svg version="1.0" xmlns="http://www.w3.org/2000/svg"
 width="202.000000pt" height="202.000000pt" viewBox="0 0 202.000000 202.000000"
 preserveAspectRatio="xMidYMid meet">
<metadata>
Created by potrace 1.11, written by Peter Selinger 2001-2013
</metadata>
<g transform="translate(0.000000,202.000000) scale(0.100000,-0.100000)"
fill="#000000" stroke="none">
<path d="M148 1870 c-47 -14 -88 -44 -116 -84 l-27 -39 -3 -726 -2 -726 22
-44 c13 -25 40 -59 61 -75 l39 -31 861 -3 c474 -1 877 0 895 3 45 8 119 77
132 124 8 24 10 273 8 758 l-3 721 -30 43 c-16 23 -48 52 -70 63 -40 21 -49
21 -890 23 -467 1 -862 -2 -877 -7z"/>
</g>
</svg>
